<svg display="none" xmlns="http://www.w3.org/2000/svg">

 
    <symbol id="facebook" viewBox="0 0 512 512">
    
       <g><path d="M288,192v-38.1c0-17.2,3.8-25.9,30.5-25.9H352V64h-55.9c-68.5,0-91.1,31.4-91.1,85.3V192h-45v64h45v192h83V256h56.4l7.6-64  H288z"/></g>
    </symbol>

    <symbol id="twitter" viewBox="0 0 56.693 56.693">
    
       <g><path d="M52.837,15.065c-1.811,0.805-3.76,1.348-5.805,1.591c2.088-1.25,3.689-3.23,4.444-5.592c-1.953,1.159-4.115,2-6.418,2.454  c-1.843-1.964-4.47-3.192-7.377-3.192c-5.581,0-10.106,4.525-10.106,10.107c0,0.791,0.089,1.562,0.262,2.303  c-8.4-0.422-15.848-4.445-20.833-10.56c-0.87,1.492-1.368,3.228-1.368,5.082c0,3.506,1.784,6.6,4.496,8.412  c-1.656-0.053-3.215-0.508-4.578-1.265c-0.001,0.042-0.001,0.085-0.001,0.128c0,4.896,3.484,8.98,8.108,9.91  c-0.848,0.23-1.741,0.354-2.663,0.354c-0.652,0-1.285-0.063-1.902-0.182c1.287,4.015,5.019,6.938,9.441,7.019  c-3.459,2.711-7.816,4.327-12.552,4.327c-0.815,0-1.62-0.048-2.411-0.142c4.474,2.869,9.786,4.541,15.493,4.541  c18.591,0,28.756-15.4,28.756-28.756c0-0.438-0.009-0.875-0.028-1.309C49.769,18.873,51.483,17.092,52.837,15.065z"/></g>
    </symbol>

      <symbol id="instagram" viewBox="0 0 128 128">
    
       <g><path class="cls-1" d="M83,23a22,22,0,0,1,22,22V83a22,22,0,0,1-22,22H45A22,22,0,0,1,23,83V45A22,22,0,0,1,45,23H83m0-8H45A30.09,30.09,0,0,0,15,45V83a30.09,30.09,0,0,0,30,30H83a30.09,30.09,0,0,0,30-30V45A30.09,30.09,0,0,0,83,15Z"/><path class="cls-1" d="M90.14,32a5.73,5.73,0,1,0,5.73,5.73A5.73,5.73,0,0,0,90.14,32Z"/><path class="cls-1" d="M64.27,46.47A17.68,17.68,0,1,1,46.6,64.14,17.7,17.7,0,0,1,64.27,46.47m0-8A25.68,25.68,0,1,0,90,64.14,25.68,25.68,0,0,0,64.27,38.47Z"/></g>
    </symbol>

    <symbol id="arrow" viewBox="0 0 64 64">
    
       <g><g id="Icon-Chevron-Left" transform="translate(237.000000, 335.000000)"><polyline class="st0" id="Fill-35" points="-218.7,-308.6 -216.7,-310.6 -205,-298.8 -193.3,-310.6 -191.3,-308.6 -205,-294.9      -218.7,-308.6    "/></g></g>
    </symbol>

     <symbol id="location" viewBox="0 0 512 512">
    
       <g><path d="M256,64c-65.9,0-119.3,53.7-119.3,120c0,114.6,119.3,264,119.3,264s119.3-149.4,119.3-264C375.3,117.7,321.9,64,256,64z    M256,242.2c-31.2,0-56.4-25.4-56.4-56.7c0-31.3,25.3-56.8,56.4-56.8c31.2,0,56.4,25.4,56.4,56.8   C312.4,216.8,287.2,242.2,256,242.2z"/></g>
    </symbol>

    <symbol id="telephone" viewBox="0 0 512 512">
    
       <g><path d="M415.9,335.5c-14.6-15-56.1-43.1-83.3-43.1c-6.3,0-11.8,1.4-16.3,4.3c-13.3,8.5-23.9,15.1-29,15.1c-2.8,0-5.8-2.5-12.4-8.2  l-1.1-1c-18.3-15.9-22.2-20-29.3-27.4l-1.8-1.9c-1.3-1.3-2.4-2.5-3.5-3.6c-6.2-6.4-10.7-11-26.6-29l-0.7-0.8  c-7.6-8.6-12.6-14.2-12.9-18.3c-0.3-4,3.2-10.5,12.1-22.6c10.8-14.6,11.2-32.6,1.3-53.5c-7.9-16.5-20.8-32.3-32.2-46.2l-1-1.2  c-9.8-12-21.2-18-33.9-18c-14.1,0-25.8,7.6-32,11.6c-0.5,0.3-1,0.7-1.5,1c-13.9,8.8-24,20.9-27.8,33.2c-5.7,18.5-9.5,42.5,17.8,92.4  c23.6,43.2,45,72.2,79,107.1c32,32.8,46.2,43.4,78,66.4c35.4,25.6,69.4,40.3,93.2,40.3c22.1,0,39.5,0,64.3-29.9  C442.3,370.8,431.5,351.6,415.9,335.5z"/></g>
    </symbol>

    <symbol id="email" viewBox="0 0 512 512">
    
       <g><path d="M67,148.7c11,5.8,163.8,89.1,169.5,92.1c5.7,3,11.5,4.4,20.5,4.4c9,0,14.8-1.4,20.5-4.4c5.7-3,158.5-86.3,169.5-92.1   c4.1-2.1,11-5.9,12.5-10.2c2.6-7.6-0.2-10.5-11.3-10.5H257H65.8c-11.1,0-13.9,3-11.3,10.5C56,142.9,62.9,146.6,67,148.7z"/><path d="M455.7,153.2c-8.2,4.2-81.8,56.6-130.5,88.1l82.2,92.5c2,2,2.9,4.4,1.8,5.6c-1.2,1.1-3.8,0.5-5.9-1.4l-98.6-83.2   c-14.9,9.6-25.4,16.2-27.2,17.2c-7.7,3.9-13.1,4.4-20.5,4.4c-7.4,0-12.8-0.5-20.5-4.4c-1.9-1-12.3-7.6-27.2-17.2l-98.6,83.2   c-2,2-4.7,2.6-5.9,1.4c-1.2-1.1-0.3-3.6,1.7-5.6l82.1-92.5c-48.7-31.5-123.1-83.9-131.3-88.1c-8.8-4.5-9.3,0.8-9.3,4.9   c0,4.1,0,205,0,205c0,9.3,13.7,20.9,23.5,20.9H257h185.5c9.8,0,21.5-11.7,21.5-20.9c0,0,0-201,0-205   C464,153.9,464.6,148.7,455.7,153.2z"/></g>
    </symbol>

    <symbol id="clock" viewBox="0 0 96 96">
    
       <g><path d="M48,0A48,48,0,1,0,96,48,48.055,48.055,0,0,0,48,0Zm0,84A36,36,0,1,1,84,48,36.0393,36.0393,0,0,1,48,84Z"/><path d="M66,42H54V30a6,6,0,0,0-12,0V48a5.9966,5.9966,0,0,0,6,6H66a6,6,0,0,0,0-12Z"/></g>
    </symbol>

     



</svg>